<?xml version="1.0" encoding="UTF-8"?>
<svg width="10px" height="13px" viewBox="0 0 10 13" version="1.1" xmlns="http://www.w3.org/2000/svg" xmlns:xlink="http://www.w3.org/1999/xlink">
    <!-- Generator: Sketch 59 (86127) - https://sketch.com -->
    <title>位置</title>
    <desc>Created with Sketch.</desc>
    <g id="首页" stroke="none" stroke-width="1" fill="none" fill-rule="evenodd">
        <g id="1-首页" transform="translate(-283.000000, -85.000000)" fill-rule="nonzero">
            <g id="位置" transform="translate(280.000000, 83.000000)">
                <rect id="矩形" fill="#000000" opacity="0" x="0" y="0" width="16" height="16"></rect>
                <path d="M9.64324746,11.53125 C11.5967994,11.7558594 13,12.3730469 13,13.0996094 C13,14.0175781 10.7615144,14.7597656 8,14.7597656 C5.23848556,14.7597656 3,14.015625 3,13.0996094 C3,12.3730469 4.40320062,11.7578125 6.35675254,11.53125 C7.15300546,12.4003906 7.81069477,13.0019531 7.81850117,13.0097656 L7.81850117,13.0097656 L8,13.1757813 L8.18149883,13.0097656 C8.19125683,13.0019531 8.84699454,12.4003906 9.64324746,11.53125 Z M8,2 C10.3848556,2 12.3208431,3.98046875 12.3208431,6.421875 C12.3208431,8.86328125 8,12.8085938 8,12.8085938 C8,12.8085938 3.67915691,8.86523438 3.67915691,6.421875 C3.67915691,3.98046875 5.61514442,2 8,2 Z M8,4.43359375 C6.95589383,4.43359375 6.1108509,5.27929688 6.1108509,6.32421875 C6.1108509,7.36914063 6.95589383,8.21484375 8,8.21484375 C9.04410617,8.21484375 9.8891491,7.36914063 9.8891491,6.32421875 C9.8891491,5.27929688 9.04410617,4.43359375 8,4.43359375 Z" id="形状结合" fill="#999999"></path>
            </g>
        </g>
    </g>
</svg>