<?xml version="1.0" encoding="UTF-8"?>
<svg width="20px" height="20px" viewBox="0 0 20 20" version="1.1" xmlns="http://www.w3.org/2000/svg" xmlns:xlink="http://www.w3.org/1999/xlink">
    <!-- Generator: Sketch 59 (86127) - https://sketch.com -->
    <title>hone</title>
    <desc>Created with Sketch.</desc>
    <g id="内容管理" stroke="none" stroke-width="1" fill="none" fill-rule="evenodd">
        <g id="添加导航弹窗" transform="translate(-566.000000, -427.000000)" fill="#000000" fill-rule="nonzero">
            <g id="Group-2" transform="translate(485.000000, 417.000000)">
                <g id="hone" transform="translate(81.000000, 10.000000)">
                    <rect id="矩形" opacity="0" x="0" y="0" width="20" height="20"></rect>
                    <path d="M15.9066519,12.6787183 L12.7587431,12.6787183 C12.4396646,12.6784885 12.1810577,12.4198816 12.1808279,12.1008031 L12.1808279,8.95289428 C12.1808279,8.63414508 12.4399939,8.37497906 12.7587431,8.37497906 L15.9066519,8.37497906 C16.2254011,8.37497906 16.4845671,8.63414508 16.4845671,8.95289428 L16.4845671,12.1008031 C16.4845671,12.4191356 16.2254011,12.6787183 15.9066519,12.6787183 L15.9066519,12.6787183 Z M13.0633257,11.7962205 L15.6020693,11.7962205 L15.6020693,9.25747686 L13.0633257,9.25747686 L13.0633257,11.7962205 Z M15.9066519,17.6457892 L12.7587431,17.6457892 C12.4396646,17.6455594 12.1810577,17.3869525 12.1808279,17.067874 L12.1808279,13.9199652 C12.1808279,13.601216 12.4399939,13.34205 12.7587431,13.34205 L15.9066519,13.34205 C16.2254011,13.34205 16.4845671,13.601216 16.4845671,13.9199652 L16.4845671,17.067874 C16.4845671,17.3866232 16.2254011,17.6457892 15.9066519,17.6457892 L15.9066519,17.6457892 Z M13.0633257,16.7632914 L15.6020693,16.7632914 L15.6020693,14.2245478 L13.0633257,14.2245478 L13.0633257,16.7632914 L13.0633257,16.7632914 Z M10.949581,17.6457892 L7.80167217,17.6457892 C7.48259364,17.6455594 7.22398674,17.3869525 7.22375693,17.067874 L7.22375693,13.9199652 C7.22375693,13.601216 7.48292295,13.34205 7.80167217,13.34205 L10.949581,13.34205 C11.2683302,13.34205 11.5274962,13.601216 11.5274962,13.9199652 L11.5274962,17.067874 C11.5274962,17.3866232 11.2683302,17.6457892 10.949581,17.6457892 L10.949581,17.6457892 Z M8.10625473,16.7632914 L10.6449984,16.7632914 L10.6449984,14.2245478 L8.10625473,14.2245478 L8.10625473,16.7632914 L8.10625473,16.7632914 Z M18.5162287,6.31123422 L18.5162287,6.3066509 L18.5099787,6.3066509 L10.147083,0.109166387 C9.95309431,-0.0361805755 9.68648993,-0.0361805755 9.49250127,0.109166387 L0.032941582,7.3866482 L0.698356582,8.24872937 L1.53835449,7.60539766 L1.53835449,18.5049537 C1.53789575,18.9034735 1.69674687,19.2856443 1.97955854,19.5664214 C2.26237021,19.8471984 2.64567802,20.0032861 3.04418406,20.0000024 L17.0212324,20.0000024 C17.8468008,19.99972 18.5159987,19.3305221 18.5162287,18.5049537 L18.5145621,9.62705926 C18.5145989,9.43217656 18.4106514,9.25208173 18.2418842,9.15462973 C18.073117,9.05717773 17.8651765,9.05717773 17.6964093,9.15462973 C17.5276421,9.25208173 17.4236946,9.43217656 17.4237314,9.62705926 L17.4237314,11.8908036 C17.4237314,11.8970536 17.4253981,11.9024703 17.4253981,11.9087202 L17.4253981,18.5049537 C17.4192671,18.7278721 17.2337422,18.9037012 17.0108158,18.8978694 L3.04418406,18.8978694 C2.93709239,18.9007815 2.83323382,18.8610122 2.75547598,18.7873181 C2.67771813,18.713624 2.63243669,18.6120475 2.62960176,18.5049537 L2.62960176,6.77039975 L9.82000045,1.26583018 L16.8899828,6.45706719 L16.8899828,6.44915055 L18.8528945,7.88248029 L18.8528945,7.89831359 L19.3453933,8.25997936 L19.9674751,7.38706486 L18.5162287,6.31123422 Z" id="形状"></path>
                </g>
            </g>
        </g>
    </g>
</svg>