<?xml version="1.0" encoding="UTF-8"?>
<svg width="26px" height="26px" viewBox="0 0 26 26" version="1.1" xmlns="http://www.w3.org/2000/svg" xmlns:xlink="http://www.w3.org/1999/xlink">
    <!-- Generator: Sketch 59 (86127) - https://sketch.com -->
    <title>历史记录</title>
    <desc>Created with Sketch.</desc>
    <g id="商品中心" stroke="none" stroke-width="1" fill="none" fill-rule="evenodd">
        <g id="1-3商品中心-编辑主商品" transform="translate(-1876.000000, -760.000000)" fill-rule="nonzero" stroke="#666666">
            <g id="编组-27" transform="translate(1860.000000, 750.000000)">
                <g id="BackToTop/Square/Hover备份-2">
                    <g id="历史记录" transform="translate(17.000000, 11.000000)">
                        <path d="M12,23.4285714 C5.68817428,23.4285714 0.571428562,18.3118257 0.571428562,12 C0.571428562,5.68817428 5.68817428,0.571428562 12,0.571428562 C18.3118257,0.571428562 23.4285714,5.68817428 23.4285714,12 C23.4285714,18.3118257 18.3118257,23.4285714 12,23.4285714 Z" id="Path" stroke-width="2"></path>
                        <path d="M15.5291429,14.7550476 C15.7354139,14.9389163 15.8259643,15.2200547 15.7657779,15.4897453 C15.7055914,15.7594359 15.5041033,15.9754004 15.2392298,16.0541245 C14.9743564,16.1328485 14.6876207,16.0619908 14.4899047,15.8689524 L11.1801905,12.7817143 C10.9779569,12.6392147 10.8575017,12.4073953 10.8571428,12.16 L10.8571428,7.58857144 C10.8571428,7.16778306 11.1982592,6.82666667 11.6190476,6.82666667 C12.039836,6.82666667 12.3809524,7.16778306 12.3809524,7.58857144 L12.3809524,11.8171428 L15.5291429,14.7550476 Z" id="Path" fill="#666666"></path>
                    </g>
                </g>
            </g>
        </g>
    </g>
</svg>