<?xml version="1.0" encoding="UTF-8"?>
<svg width="14px" height="8px" viewBox="0 0 14 8" version="1.1" xmlns="http://www.w3.org/2000/svg" xmlns:xlink="http://www.w3.org/1999/xlink">
    <!-- Generator: Sketch 59 (86127) - https://sketch.com -->
    <title>隐藏</title>
    <desc>Created with Sketch.</desc>
    <g id="Page-1" stroke="none" stroke-width="1" fill="none" fill-rule="evenodd">
        <g id="账号基础管理-编辑-通用" transform="translate(-701.000000, -585.000000)" fill="#000000" fill-rule="nonzero">
            <g id="隐藏" transform="translate(700.000000, 581.000000)">
                <rect id="Rectangle" opacity="0" x="0" y="0" width="16" height="16"></rect>
                <path d="M8.00020786,8.88990864 C5.1418898,8.88990864 2.47742431,7.48335828 1.0460268,5.21918139 C0.953593469,5.07339223 0.997163922,4.87995539 1.14335281,4.78793778 C1.28914197,4.69508873 1.48257881,4.73907491 1.57459642,4.8852638 C2.89237497,6.96943473 5.35446567,8.26441273 8.00019187,8.26441273 C10.6459181,8.26441273 13.1080088,6.96943473 14.4253876,4.8852638 C14.5174212,4.73947464 14.7104423,4.69508873 14.8566312,4.78793778 C15.0028201,4.87997138 15.0463905,5.07340823 14.9539572,5.21918139 C13.5233911,7.4833423 10.8585099,8.88990864 8.00020786,8.88990864 Z M5.4709307,11.2607652 C5.44731472,11.2607652 5.42288328,11.2587346 5.39885158,11.2546573 C5.17202936,11.2147484 5.02013234,10.9989267 5.05962558,10.7720885 L5.44200633,8.58285283 C5.48149955,8.35603061 5.69896811,8.20413359 5.92457514,8.24362683 C6.15139736,8.28353577 6.30329438,8.49935744 6.26380114,8.72619564 L5.88142039,10.9154313 C5.84598842,11.1182378 5.66965997,11.2607652 5.4709307,11.2607652 Z M10.4740986,11.2607652 C10.280262,11.2607652 10.1067796,11.1251611 10.0660552,10.9280628 L9.61444141,8.73882708 C9.56802488,8.51322005 9.71298259,8.29250569 9.93858964,8.24608916 C10.1633812,8.20047208 10.384911,8.34463034 10.4313276,8.57023739 L10.8829414,10.7594731 C10.9293579,10.9850801 10.7844002,11.2057945 10.5587931,11.252211 C10.5302845,11.2579191 10.5021915,11.2607652 10.4740986,11.2607652 Z M2.13453678,9.64490075 C2.08688909,9.64490075 2.03884166,9.63676227 1.9915937,9.61965387 C1.77535631,9.54065144 1.66378395,9.30119778 1.74278639,9.08496039 L2.54216441,6.89572469 C2.62116684,6.67867184 2.86102022,6.56831467 3.07685789,6.64691737 C3.29309528,6.72591981 3.40466764,6.96537347 3.3256652,7.18161086 L2.52628719,9.37084656 C2.46437716,9.54023572 2.30475737,9.64490075 2.13453678,9.64490075 Z M13.8104925,10.0097734 C13.6447489,10.0097734 13.4879752,9.91000102 13.4228193,9.74670373 L12.5542083,7.55746803 C12.4695137,7.34326127 12.5741627,7.10096155 12.7879538,7.01585125 C13.0017448,6.93114069 13.2440445,7.03580572 13.3295705,7.24959677 L14.1981816,9.43883247 C14.2828762,9.65303923 14.1782272,9.89533895 13.9644361,9.98044925 C13.9139264,10.0004037 13.8618017,10.0097734 13.8104925,10.0097734 Z" id="Shape"></path>
            </g>
        </g>
    </g>
</svg>