<?xml version="1.0" encoding="UTF-8"?>
<svg width="16px" height="14px" viewBox="0 0 16 14" version="1.1" xmlns="http://www.w3.org/2000/svg" xmlns:xlink="http://www.w3.org/1999/xlink">
    <!-- Generator: Sketch 59 (86127) - https://sketch.com -->
    <title>展开备份</title>
    <desc>Created with Sketch.</desc>
    <g id="内容管理" stroke="none" stroke-width="1" fill="none" fill-rule="evenodd">
        <g id="内容管理快捷入口" transform="translate(-281.000000, -23.000000)">
            <g id="展开备份" transform="translate(289.000000, 30.000000) scale(-1, 1) translate(-289.000000, -30.000000) translate(280.000000, 21.000000)">
                <rect id="矩形" fill="#000000" opacity="0" x="0" y="0" width="18" height="18"></rect>
                <path d="M16.4775059,8.58000586 L13.5750059,6.5475 C13.3500059,6.38249414 13.0424941,6.42749414 12.87,6.64500586 C12.8025,6.7275 12.7724941,6.83249414 12.7724941,6.94499414 L12.7724941,11.0550059 C12.7724941,11.4525 13.2224941,11.7 13.5750059,11.4525 L16.4849941,9.41999414 C16.7324941,9.17249414 16.7324941,8.775 16.4775059,8.58000586 Z M16.0725059,3.74999414 L2.2725,3.74999414 C1.94250586,3.74999414 1.67250586,3.47999414 1.67250586,3.15 C1.67250586,2.82000586 1.94250586,2.55000586 2.2725,2.55000586 L16.0725059,2.55000586 C16.4025,2.55000586 16.6725059,2.82000586 16.6725059,3.15 C16.6725059,3.47999414 16.4100059,3.74999414 16.0725059,3.74999414 Z M16.0725059,15.4499941 L2.2725,15.4499941 C1.94250586,15.4499941 1.67250586,15.1799941 1.67250586,14.85 C1.67250586,14.5200059 1.94250586,14.2500059 2.2725,14.2500059 L16.0725059,14.2500059 C16.4025,14.2500059 16.6725059,14.5200059 16.6725059,14.85 C16.6725059,15.1799941 16.4100059,15.4499941 16.0725059,15.4499941 Z M10.9724941,7.65 L2.2725,7.65 C1.94250586,7.65 1.67250586,7.38 1.67250586,7.05000586 C1.67250586,6.72001172 1.94250586,6.44999414 2.2725,6.44999414 L10.9724941,6.44999414 C11.3025059,6.44999414 11.5725059,6.71999414 11.5725059,7.05000586 C11.5725059,7.38001758 11.3099941,7.65 10.9724941,7.65 Z M10.98,11.5500059 L2.2725,11.5500059 C1.94250586,11.5500059 1.67250586,11.2800059 1.67250586,10.9499941 C1.67250586,10.6199824 1.94250586,10.35 2.2725,10.35 L10.98,10.35 C11.3099941,10.35 11.5799941,10.62 11.5799941,10.9499941 L11.5799941,10.9575 C11.5725059,11.2800059 11.3099941,11.5500059 10.98,11.5500059 Z" id="形状" fill="#999999" fill-rule="nonzero"></path>
            </g>
        </g>
    </g>
</svg>