<?xml version="1.0" encoding="UTF-8"?>
<svg width="18px" height="17px" viewBox="0 0 18 17" version="1.1" xmlns="http://www.w3.org/2000/svg" xmlns:xlink="http://www.w3.org/1999/xlink">
    <!-- Generator: Sketch 59 (86127) - https://sketch.com -->
    <title>pc copy 5</title>
    <desc>Created with Sketch.</desc>
    <g id="商品中心" stroke="none" stroke-width="1" fill="none" fill-rule="evenodd">
        <g id="1-1-主商品管理-初始" transform="translate(-1375.000000, -513.000000)" fill="#FFB600" fill-rule="nonzero">
            <g id="pc-copy-5" transform="translate(1375.000000, 513.000000)">
                <path d="M15.6315789,0.333333333 L2.36842105,0.333333333 C1.06010526,0.333333333 0,1.3865098 0,2.68627451 L0,11.1568627 C0,12.4566275 1.06010526,13.5098039 2.36842105,13.5098039 L8.52631579,13.5098039 L8.52631579,15.3921569 L3.31578947,15.3921569 C3.05384211,15.3921569 2.84210526,15.6025098 2.84210526,15.8627451 C2.84210526,16.1229804 3.05384211,16.3333333 3.31578947,16.3333333 L14.6842105,16.3333333 C14.9461579,16.3333333 15.1578947,16.1229804 15.1578947,15.8627451 C15.1578947,15.6025098 14.9461579,15.3921569 14.6842105,15.3921569 L9.47368421,15.3921569 L9.47368421,13.5098039 L15.6315789,13.5098039 C16.9398947,13.5098039 18,12.4566275 18,11.1568627 L18,2.68627451 C18,1.3865098 16.9398947,0.333333333 15.6315789,0.333333333 Z M17.0526316,11.1568627 C17.0526316,11.9361569 16.4164737,12.5686275 15.6315789,12.5686275 L2.36842105,12.5686275 C1.58352632,12.5686275 0.947368421,11.9361569 0.947368421,11.1568627 L0.947368421,2.68627451 C0.947368421,1.9065098 1.58352632,1.2745098 2.36842105,1.2745098 L15.6315789,1.2745098 C16.4164737,1.2745098 17.0526316,1.9065098 17.0526316,2.68627451 L17.0526316,11.1568627 Z" id="Shape"></path>
            </g>
        </g>
    </g>
</svg>