<?xml version="1.0" encoding="UTF-8"?>
<svg width="12px" height="12px" viewBox="0 0 12 12" version="1.1" xmlns="http://www.w3.org/2000/svg" xmlns:xlink="http://www.w3.org/1999/xlink">
    <!-- Generator: Sketch 59 (86127) - https://sketch.com -->
    <title>问号</title>
    <desc>Created with Sketch.</desc>
    <g id="促销管理" stroke="none" stroke-width="1" fill="none" fill-rule="evenodd">
        <g id="6.1-促销管理-新建单品促销活动" transform="translate(-1491.000000, -154.000000)" fill-rule="nonzero">
            <g id="问号" transform="translate(1490.000000, 153.000000)">
                <rect id="矩形" fill="#000000" opacity="0" x="0" y="0" width="14" height="14"></rect>
                <path d="M7,1.113 C3.81055557,1.113 1.225,3.69855557 1.225,6.888 C1.225,10.0774444 3.81055557,12.663 7,12.663 C10.1894444,12.663 12.775,10.0774444 12.775,6.888 C12.775,5.35637477 12.1665642,3.88748092 11.0835417,2.80445834 C10.0005191,1.72143575 8.53162523,1.113 7,1.113 Z M7.364,9.723 C7.24861369,9.83190081 7.09565755,9.89208027 6.937,9.891 C6.77661077,9.89411751 6.62207009,9.83078117 6.51,9.716 C6.39630036,9.60608461 6.33298573,9.45412952 6.335,9.296 C6.32848746,9.1370335 6.39253863,8.98331071 6.51,8.876 C6.62325414,8.76378547 6.77764501,8.70304152 6.937,8.708 C7.09861458,8.70193146 7.25559355,8.76269752 7.371,8.876 C7.48846137,8.98331071 7.55251254,9.1370335 7.546,9.296 C7.5483964,9.45969501 7.48243905,9.61697792 7.364,9.73 L7.364,9.723 Z M8.554,6.503 C8.33295516,6.73065157 8.09925096,6.94565943 7.854,7.147 C7.71006186,7.26278305 7.59302429,7.40848288 7.511,7.574 C7.42039725,7.74151365 7.3745851,7.92958461 7.378,8.12 L7.378,8.26 L6.503,8.26 L6.503,8.12 C6.49318652,7.84878448 6.55091598,7.57938034 6.671,7.336 C6.92022566,6.94242486 7.23237701,6.59243698 7.595,6.3 L7.735,6.146 C7.87818452,5.97742115 7.95966072,5.76508923 7.966,5.544 C7.96189927,5.30343258 7.86686115,5.07334028 7.7,4.9 C7.50937806,4.72706741 7.25685841,4.63868553 7,4.655 C6.68834564,4.62894202 6.38489991,4.76351361 6.195,5.012 C6.03308711,5.26113558 5.95463683,5.55532413 5.971,5.852 L5.131,5.852 C5.10753095,5.33453097 5.29436616,4.82957096 5.649,4.452 C6.03441857,4.08651915 6.55372146,3.89653028 7.084,3.927 C7.55758479,3.88648596 8.02865269,4.02930974 8.4,4.326 C8.73725102,4.62401752 8.92022241,5.05954098 8.897,5.509 C8.89982035,5.87196263 8.77883414,6.22504485 8.554,6.51 L8.554,6.503 Z" id="形状" fill="#9F9F9F"></path>
            </g>
        </g>
    </g>
</svg>