<?xml version="1.0" encoding="UTF-8"?>
<svg width="16px" height="16px" viewBox="0 0 16 16" version="1.1" xmlns="http://www.w3.org/2000/svg" xmlns:xlink="http://www.w3.org/1999/xlink">
    <!-- Generator: Sketch 59 (86127) - https://sketch.com -->
    <title>sousuo</title>
    <desc>Created with Sketch.</desc>
    <g id="Page-1" stroke="none" stroke-width="1" fill="none" fill-rule="evenodd">
        <g id="文件管理" transform="translate(-860.000000, -266.000000)" fill-rule="nonzero">
            <g id="sousuo" transform="translate(859.000000, 265.000000)">
                <rect id="矩形" fill="#000000" opacity="0" x="0" y="0" width="18" height="18"></rect>
                <path d="M10.2251953,9.45703125 C11.3167969,7.90664062 11.0425781,5.77792969 9.59414063,4.55449219 C8.14570313,3.33105469 6.00117188,3.4171875 4.65644531,4.753125 C3.31347656,6.09785156 3.22207031,8.24589844 4.44902344,9.69785156 C5.67597656,11.1498047 7.80996094,11.4205078 9.35859375,10.3201172 L9.86484375,9.96152344 L10.2251953,9.45703125 Z M10.4220703,11.8107422 C8.09824219,13.4525391 4.90429688,13.0447266 3.06738281,10.8703125 C1.22871094,8.69765625 1.35878906,5.48085937 3.36445313,3.46113281 C5.38066406,1.43964844 8.60976563,1.30253906 10.7894531,3.14472656 C12.9691406,4.98691406 13.3716797,8.19492188 11.7140625,10.51875 L15.9046875,14.7076172 C16.2035156,15.0046875 16.1542969,15.5355469 15.7974609,15.8923828 C15.440625,16.2492188 14.9115234,16.2984375 14.6126953,15.9996094 L10.4220703,11.8107422 Z" id="形状" fill="#666666"></path>
            </g>
        </g>
    </g>
</svg>