<?xml version="1.0" encoding="UTF-8"?>
<svg width="18px" height="18px" viewBox="0 0 18 18" version="1.1" xmlns="http://www.w3.org/2000/svg" xmlns:xlink="http://www.w3.org/1999/xlink">
    <!-- Generator: Sketch 59 (86127) - https://sketch.com -->
    <title>小程序 copy 5</title>
    <desc>Created with Sketch.</desc>
    <g id="商品中心" stroke="none" stroke-width="1" fill="none" fill-rule="evenodd">
        <g id="1-1-主商品管理-初始" transform="translate(-1413.000000, -512.000000)" fill="#FFB600" fill-rule="nonzero">
            <g id="小程序-copy-5" transform="translate(1413.000000, 512.000000)">
                <path d="M11.1503571,4.62214286 C12.5485714,4.62214286 13.6864286,5.67321429 13.6864286,6.975 C13.6864286,7.38 13.5707143,7.77535714 13.3585714,8.13214286 C13.0403571,8.65285714 12.5292857,9.03857143 11.9121429,9.22178571 C11.7482143,9.27 11.6228571,9.28928571 11.5071429,9.28928571 C11.2371429,9.28928571 11.025,9.07714286 11.025,8.80714286 C11.025,8.53714286 11.2371429,8.325 11.5071429,8.325 C11.5264286,8.325 11.565,8.325 11.6132143,8.30571429 C12.0278571,8.19 12.3557143,7.94892857 12.5389286,7.63071429 C12.6642857,7.42821429 12.7221429,7.20642857 12.7221429,6.975 C12.7221429,6.21321429 12.0182143,5.58642857 11.16,5.58642857 C10.8610714,5.58642857 10.5717857,5.66357143 10.3114286,5.80821429 C9.85821429,6.06857143 9.58821429,6.5025 9.58821429,6.975 L9.58821429,11.0153571 C9.58821429,11.835 9.135,12.5871429 8.38285714,13.0114286 C7.97785714,13.2428571 7.52464286,13.3585714 7.06178571,13.3585714 C5.66357143,13.3585714 4.52571429,12.3075 4.52571429,11.0057143 C4.52571429,10.6007143 4.64142857,10.2053571 4.85357143,9.84857143 C5.17178571,9.32785714 5.68285714,8.94214286 6.3,8.75892857 C6.47357143,8.71071429 6.58928571,8.69142857 6.705,8.69142857 C6.975,8.69142857 7.18714286,8.90357143 7.18714286,9.17357143 C7.18714286,9.44357143 6.975,9.65571429 6.705,9.65571429 C6.68571429,9.65571429 6.64714286,9.65571429 6.59892857,9.675 C6.18428571,9.80035714 5.85642857,10.0414286 5.67321429,10.35 C5.54785714,10.5525 5.49,10.7742857 5.49,11.0057143 C5.49,11.7675 6.19392857,12.3942857 7.06178571,12.3942857 C7.36071429,12.3942857 7.65,12.3171429 7.91035714,12.1725 C8.36357143,11.9121429 8.63357143,11.4782143 8.63357143,11.0057143 L8.63357143,6.975 C8.63357143,6.15535714 9.08678571,5.40321429 9.83892857,4.97892857 C10.2342857,4.73785714 10.6875,4.62214286 11.1503571,4.62214286 L11.1503571,4.62214286 Z M1.34357143,8.96142857 C1.34357143,13.2235714 4.79571429,16.6757143 9.05785714,16.6757143 C13.32,16.6757143 16.7721429,13.2235714 16.7721429,8.96142857 C16.7721429,4.69928571 13.32,1.24714286 9.05785714,1.24714286 C4.79571429,1.24714286 1.34357143,4.69928571 1.34357143,8.96142857 Z M0.379285714,8.96142857 C0.379285714,4.16892857 4.26535714,0.282857143 9.05785714,0.282857143 C13.8503571,0.282857143 17.7364286,4.16892857 17.7364286,8.96142857 C17.7364286,13.7539286 13.8503571,17.64 9.05785714,17.64 C4.26535714,17.64 0.379285714,13.7539286 0.379285714,8.96142857 Z" id="Shape"></path>
            </g>
        </g>
    </g>
</svg>